<?xml version="1.0" encoding="utf-8"?>
<!-- Generator: Adobe Illustrator 25.2.0, SVG Export Plug-In . SVG Version: 6.00 Build 0)  -->
<svg version="1.1" xmlns="http://www.w3.org/2000/svg" xmlns:xlink="http://www.w3.org/1999/xlink" x="0px" y="0px"
	 viewBox="0 0 2290 1100" style="enable-background:new 0 0 2290 1100;" xml:space="preserve">
<style type="text/css">
	.st0{fill:#F6DF19;}
	.st1{fill:#010101;}
	.st2{fill:none;}
	.st3{font-family:'NeutraText-Bold';}
	.st4{font-size:132.967px;}
	.st5{font-size:80px;}
</style>
<g id="guides">
</g>
<g id="guides_copy">
	<g>
		<rect x="1190" class="st0" width="1100" height="1100"/>
		<path class="st1" d="M1928.92,859.38c22.16,36.18,50.98,62.77,101.97,62.77c42.83,0,70.19-21.41,70.19-50.98
			c0-35.44-28.11-48-75.25-68.62l-25.84-11.09c-74.59-31.78-124.14-71.59-124.14-155.75c0-77.52,59.07-136.54,151.38-136.54
			c65.72,0,112.97,22.87,147.02,82.76l-80.49,51.68c-17.72-31.78-36.84-44.3-66.52-44.3c-30.28,0-49.47,19.21-49.47,44.3
			c0,31.01,19.21,43.56,63.56,62.77l25.84,11.07c87.83,37.66,137.41,76.06,137.41,162.38c0,93.06-73.11,144.05-171.29,144.05
			c-96,0-158.02-45.75-188.36-105.7L1928.92,859.38z M1563.77,868.34c16.24,28.81,31.01,53.17,66.52,53.17
			c33.96,0,55.38-13.29,55.38-64.95V505.07h103.36v352.87c0,107.03-62.75,155.75-154.35,155.75c-82.76,0-130.69-42.83-155.07-94.42
			L1563.77,868.34z"/>
	</g>
	<rect class="st0" width="1426.37" height="1100"/>
	<rect x="84.62" y="505.07" class="st2" width="1569.79" height="508.62"/>
	<text transform="matrix(1 0 0 1 84.6152 601.0752)"><tspan x="0" y="0" class="st3 st4">Javascript Testing</tspan><tspan x="0" y="159.56" class="st3 st4">a Practical Approach</tspan></text>
	<rect x="100" y="922.06" class="st2" width="910.61" height="87.94"/>
	<text transform="matrix(1 0 0 1 100.0003 1009.9501)" class="st3 st5">Stefano Magni @NoriSte</text>
</g>
</svg>
